<?xml version="1.0" encoding="UTF-8" standalone="no"?>
<!-- Created with Inkscape (http://www.inkscape.org/) -->

<svg
   xmlns:dc="http://purl.org/dc/elements/1.1/"
   xmlns:cc="http://creativecommons.org/ns#"
   xmlns:rdf="http://www.w3.org/1999/02/22-rdf-syntax-ns#"
   xmlns:svg="http://www.w3.org/2000/svg"
   xmlns="http://www.w3.org/2000/svg"
   xmlns:xlink="http://www.w3.org/1999/xlink"
   xmlns:sodipodi="http://sodipodi.sourceforge.net/DTD/sodipodi-0.dtd"
   xmlns:inkscape="http://www.inkscape.org/namespaces/inkscape"
   width="210mm"
   height="297mm"
   viewBox="0 0 210 297"
   version="1.1"
   id="svg8"
   inkscape:version="0.92.5 (2060ec1f9f, 2020-04-08)"
   sodipodi:docname="RVLOGOsnowy.svg">
  <defs
     id="defs2">
    <inkscape:path-effect
       effect="bspline"
       id="path-effect938"
       is_visible="true"
       weight="33.333333"
       steps="2"
       helper_size="0"
       apply_no_weight="true"
       apply_with_weight="true"
       only_selected="false" />
    <inkscape:path-effect
       effect="bspline"
       id="path-effect930"
       is_visible="true"
       weight="33.333333"
       steps="2"
       helper_size="0"
       apply_no_weight="true"
       apply_with_weight="true"
       only_selected="false" />
    <inkscape:path-effect
       effect="bspline"
       id="path-effect858"
       is_visible="true"
       weight="33.333333"
       steps="2"
       helper_size="0"
       apply_no_weight="true"
       apply_with_weight="true"
       only_selected="false" />
    <linearGradient
       id="linearGradient835"
       inkscape:collect="always">
      <stop
         id="stop831"
         offset="0"
         style="stop-color:#1645ff;stop-opacity:1" />
      <stop
         id="stop833"
         offset="1"
         style="stop-color:#00edff;stop-opacity:0.99607843" />
    </linearGradient>
    <inkscape:path-effect
       effect="bspline"
       id="path-effect827"
       is_visible="true"
       weight="33.333333"
       steps="2"
       helper_size="0"
       apply_no_weight="true"
       apply_with_weight="true"
       only_selected="false" />
    <inkscape:path-effect
       effect="bspline"
       id="path-effect827-7"
       is_visible="true"
       weight="33.333333"
       steps="2"
       helper_size="0"
       apply_no_weight="true"
       apply_with_weight="true"
       only_selected="false" />
    <inkscape:path-effect
       effect="bspline"
       id="path-effect938-6"
       is_visible="true"
       weight="33.333333"
       steps="2"
       helper_size="0"
       apply_no_weight="true"
       apply_with_weight="true"
       only_selected="false" />
    <inkscape:path-effect
       effect="bspline"
       id="path-effect858-2"
       is_visible="true"
       weight="33.333333"
       steps="2"
       helper_size="0"
       apply_no_weight="true"
       apply_with_weight="true"
       only_selected="false" />
    <inkscape:path-effect
       effect="bspline"
       id="path-effect827-9"
       is_visible="true"
       weight="33.333333"
       steps="2"
       helper_size="0"
       apply_no_weight="true"
       apply_with_weight="true"
       only_selected="false" />
    <inkscape:path-effect
       effect="bspline"
       id="path-effect938-6-2"
       is_visible="true"
       weight="33.333333"
       steps="2"
       helper_size="0"
       apply_no_weight="true"
       apply_with_weight="true"
       only_selected="false" />
    <inkscape:path-effect
       effect="bspline"
       id="path-effect858-2-6"
       is_visible="true"
       weight="33.333333"
       steps="2"
       helper_size="0"
       apply_no_weight="true"
       apply_with_weight="true"
       only_selected="false" />
    <inkscape:path-effect
       effect="bspline"
       id="path-effect827-9-1"
       is_visible="true"
       weight="33.333333"
       steps="2"
       helper_size="0"
       apply_no_weight="true"
       apply_with_weight="true"
       only_selected="false" />
    <inkscape:path-effect
       effect="bspline"
       id="path-effect938-2"
       is_visible="true"
       weight="33.333333"
       steps="2"
       helper_size="0"
       apply_no_weight="true"
       apply_with_weight="true"
       only_selected="false" />
    <inkscape:path-effect
       effect="bspline"
       id="path-effect858-0"
       is_visible="true"
       weight="33.333333"
       steps="2"
       helper_size="0"
       apply_no_weight="true"
       apply_with_weight="true"
       only_selected="false" />
    <inkscape:path-effect
       effect="bspline"
       id="path-effect827-2"
       is_visible="true"
       weight="33.333333"
       steps="2"
       helper_size="0"
       apply_no_weight="true"
       apply_with_weight="true"
       only_selected="false" />
    <inkscape:path-effect
       effect="bspline"
       id="path-effect938-2-6"
       is_visible="true"
       weight="33.333333"
       steps="2"
       helper_size="0"
       apply_no_weight="true"
       apply_with_weight="true"
       only_selected="false" />
    <inkscape:path-effect
       effect="bspline"
       id="path-effect858-0-3"
       is_visible="true"
       weight="33.333333"
       steps="2"
       helper_size="0"
       apply_no_weight="true"
       apply_with_weight="true"
       only_selected="false" />
    <inkscape:path-effect
       effect="bspline"
       id="path-effect827-2-6"
       is_visible="true"
       weight="33.333333"
       steps="2"
       helper_size="0"
       apply_no_weight="true"
       apply_with_weight="true"
       only_selected="false" />
    <linearGradient
       inkscape:collect="always"
       xlink:href="#linearGradient835"
       id="linearGradient1303"
       x1="-138.44591"
       y1="120.63325"
       x2="-28.898024"
       y2="120.63325"
       gradientUnits="userSpaceOnUse" />
  </defs>
  <sodipodi:namedview
     id="base"
     pagecolor="#ffffff"
     bordercolor="#666666"
     borderopacity="1.0"
     inkscape:pageopacity="0.0"
     inkscape:pageshadow="2"
     inkscape:zoom="0.10929592"
     inkscape:cx="957.29593"
     inkscape:cy="136.95114"
     inkscape:document-units="mm"
     inkscape:current-layer="layer1"
     showgrid="false"
     inkscape:window-width="952"
     inkscape:window-height="805"
     inkscape:window-x="1920"
     inkscape:window-y="19"
     inkscape:window-maximized="0"
     inkscape:snap-intersection-paths="true" />
  <metadata
     id="metadata5">
    <rdf:RDF>
      <cc:Work
         rdf:about="">
        <dc:format>image/svg+xml</dc:format>
        <dc:type
           rdf:resource="http://purl.org/dc/dcmitype/StillImage" />
        <dc:title />
      </cc:Work>
    </rdf:RDF>
  </metadata>
  <g
     inkscape:label="Layer 1"
     inkscape:groupmode="layer"
     id="layer1">
    <circle
       style="opacity:1;fill:#5f6f76;fill-opacity:1;stroke:#000000;stroke-width:10.65040398;stroke-miterlimit:4;stroke-dasharray:none;stroke-opacity:0"
       id="path815-7-1"
       cx="105.00002"
       cy="146.99998"
       r="94.674812" />
    <path
       style="fill:url(#linearGradient1303);fill-opacity:1;stroke:#000000;stroke-width:0.26458332px;stroke-linecap:butt;stroke-linejoin:miter;stroke-opacity:0.00483093"
       d="m -138.15778,162.6389 c 1.13738,30.22704 8.47025,40.09689 17.80539,44.10078 9.33514,4.00388 20.672022,2.14184 30.709057,-1.1446 10.037035,-3.28643 18.772592,-7.99664 17.952336,-13.11871 -0.820256,-5.12207 -11.195931,-10.65621 -22.240547,-20.15207 -11.044616,-9.49585 -22.756346,-22.95171 -19.420806,-33.15725 3.33553,-10.20554 21.716611,-17.1584 30.007102,-19.66365 8.290491,-2.50525 6.487481,-0.56181 5.123415,6.81923 -1.364066,7.38104 -2.288732,20.19901 7.579072,32.10726 9.867804,11.90824 30.528466,22.90642 33.400823,18.93751 2.872356,-3.96892 -12.044284,-22.90657 -20.109632,-37.15298 -8.065349,-14.24641 -9.282141,-23.80664 -4.208523,-28.57882 5.073619,-4.77218 16.437743,-4.75872 24.050369,-11.32866 7.612627,-6.569937 11.472399,-19.722204 5.698197,-32.820094 -5.774203,-13.09789 -21.184625,-26.146517 -39.019259,-32.177925 -17.834634,-6.031408 -38.090974,-5.045491 -50.748584,20.737792 -12.6576,25.783283 -17.71579,76.365147 -16.57841,106.592187 z"
       id="path825-5-5"
       inkscape:connector-curvature="0"
       inkscape:path-effect="#path-effect827-2-6"
       inkscape:original-d="m -144.35355,182.99571 c 7.33345,9.87001 14.66632,19.73986 21.99891,29.60997 11.33735,-1.86236 22.674233,-3.7244 34.011836,-5.58631 8.736443,-4.71084 17.472001,-9.42105 26.207219,-14.13093 -10.375626,-5.53422 -20.751175,-11.0686 -31.127676,-16.60278 -11.712619,-13.45745 -23.424349,-26.91331 -35.137479,-40.37022 18.38387,-6.95407 36.764948,-13.90693 55.149027,-20.86076 -1.803035,1.94348 -3.60604,3.88692 -5.409506,5.83082 -0.924436,12.81819 -1.849102,25.63616 -2.77405,38.45464 20.660479,10.99768 41.321142,21.99586 61.980612,32.99381 -14.914633,-18.9357 -29.831272,-37.87335 -44.74571,-56.8076 -1.216259,-9.55838 -2.43305,-19.11861 -3.64983,-28.6764 11.363723,0.0132 22.727847,0.0267 34.09301,0.0404 3.860261,-13.153297 7.720034,-26.305564 11.578879,-39.455307 -15.407181,-13.046371 -30.817603,-26.094999 -46.22852,-39.143557 -20.258604,0.985776 -40.514942,1.971693 -60.772082,2.957901 -5.05783,50.580632 -10.11602,101.162493 -15.17464,151.746323 z"
       sodipodi:nodetypes="ccccccccccccccccc"
       transform="matrix(1.0356398,0,0,0.93698827,185.84856,32.259386)" />
    <path
       transform="translate(-0.0026479,-6.844223e-4)"
       style="fill:none;stroke:#000000;stroke-width:0.26458332px;stroke-linecap:butt;stroke-linejoin:miter;stroke-opacity:0.01449274"
       d="m 146.92157,126.55386 c -2.15236,3.11962 -4.3054,6.24023 -0.98933,15.9634 3.31608,9.72318 12.09889,26.04281 16.92933,38.39203 4.83044,12.34923 5.70698,20.72505 2.35444,27.03534 -3.35254,6.31028 -10.93375,10.55359 -18.14035,11.43853 -7.2066,0.88494 -14.03813,-1.58901 -20.87043,-4.06324"
       id="path856-9-5"
       inkscape:connector-curvature="0"
       inkscape:path-effect="#path-effect858-0-3"
       inkscape:original-d="m 146.92157,126.55386 c -2.1523,3.11966 -4.30534,6.24027 -6.45895,9.36158 8.78601,16.32483 17.56882,32.64446 26.35282,48.96706 0.87685,8.37599 1.7534,16.75181 2.62978,25.12881 -7.5818,4.24351 -15.16301,8.48682 -22.74493,12.73063 -6.83111,-2.47416 -13.66264,-4.94811 -20.49506,-7.42202"
       sodipodi:nodetypes="cccccc" />
    <path
       style="opacity:1;fill:#fffdff;fill-opacity:1;stroke:#fefffd;stroke-width:1;stroke-miterlimit:4;stroke-dasharray:none;stroke-opacity:0"
       d="m 140.67345,219.25595 c -1.99967,-0.20655 -6.57444,-1.27142 -9.47248,-2.20489 -0.87245,-0.28103 -2.53083,-0.98085 -4.63578,-1.93406 -6.40998,-2.90267 -16.96112,-8.15495 -22.07126,-11.08553 -10.526108,-6.03654 -18.812378,-12.25113 -25.900698,-19.42512 -7.24092,-7.32848 -10.98814,-14.30633 -10.44961,-19.4587 0.55846,-5.3432 6.12036,-10.62856 15.85329,-15.06506 7.13533,-3.25246 16.832568,-6.37169 19.942278,-6.41466 l 1.65524,-0.0229 0.0829,0.99023 c 0.0456,0.54465 -0.22491,2.33986 -0.60117,3.98941 -0.93042,4.079 -1.27025,6.78479 -1.26894,10.10367 0.004,10.46505 4.62916,19.37453 14.03568,27.03762 8.69503,7.08349 20.48371,13.12155 26.388,13.51572 1.84771,0.12336 2.16812,0.0712 2.83935,-0.46207 1.3918,-1.10579 0.83779,-3.56018 -1.82488,-8.08442 -1.87552,-3.18679 -3.25186,-5.21184 -9.65932,-14.21207 -5.77266,-8.10859 -8.28073,-11.82173 -10.27943,-15.21849 -6.7327,-11.44211 -7.89464,-19.70253 -3.36717,-23.93745 1.60994,-1.50593 3.89708,-2.60153 8.14147,-3.89999 7.38132,-2.25811 10.4901,-3.13933 12.71687,-4.22718 1.28624,-0.62836 2.8917,-1.58027 3.00174,-1.6303 0.11005,-0.05 -0.72951,0.7711 -1.05724,1.50134 -0.7398,1.6483 -0.98623,5.6637 -0.50019,8.14958 0.88561,4.52961 3.29943,10.50881 10.18578,25.23084 7.88605,16.85924 10.46106,23.4534 11.8182,30.26435 1.44449,7.2493 0.75606,12.25526 -2.30405,16.75435 -4.5081,6.62797 -14.1908,10.68346 -23.26859,9.74576 z"
       id="path918-2-4"
       inkscape:connector-curvature="0"
       sodipodi:nodetypes="csssssscccsssscssssssccsssscc" />
    <path
       transform="translate(-0.0026479,-6.844223e-4)"
       style="fill:#5f6f76;fill-opacity:1;stroke:#000000;stroke-width:0.26458332px;stroke-linecap:butt;stroke-linejoin:miter;stroke-opacity:0"
       d="M 89.200231,91.023225 C 75.141649,97.063373 73.289663,120.43367 86.422452,126.0795 99.55524,131.72533 127.67139,119.64509 128.59731,107.95965 129.52324,96.274214 103.25881,84.983078 89.200231,91.023225 Z"
       id="path936-2-7"
       inkscape:connector-curvature="0"
       inkscape:path-effect="#path-effect938-2-6"
       inkscape:original-d="M 76.993746,73.691667 C 75.141891,97.063392 73.289905,120.43369 71.437497,143.80625 99.555186,131.7252 127.67133,119.64496 155.78702,107.56507 129.52338,96.273896 103.25895,84.98276 76.993746,73.691667 Z"
       sodipodi:nodetypes="cccc" />
  </g>
</svg>
